<?xml version="1.0" encoding="UTF-8"?>
<svg xmlns="http://www.w3.org/2000/svg" viewBox="0 0 400 400" width="400" height="400">
  <!-- Background -->
  <rect width="400" height="400" rx="20" ry="20" fill="#f8f3e6" />
  
  <!-- Chips packet -->
  <path d="M130,120 L150,300 L250,300 L270,120 Z" fill="#e74c3c" />
  <path d="M140,140 L155,280 L245,280 L260,140 Z" fill="#f1c40f" />
  <text x="200" y="180" font-family="sans-serif" font-size="18" font-weight="bold" text-anchor="middle" fill="#c0392b">POTATO</text>
  <text x="200" y="200" font-family="sans-serif" font-size="14" font-weight="bold" text-anchor="middle" fill="#c0392b">CHIPS</text>
  
  <!-- Cookie -->
  <circle cx="120" cy="230" r="30" fill="#d4a76a" />
  <circle cx="110" cy="220" r="5" fill="#8b4513" />
  <circle cx="130" cy="215" r="5" fill="#8b4513" />
  <circle cx="135" cy="235" r="5" fill="#8b4513" />
  <circle cx="115" cy="240" r="5" fill="#8b4513" />
  <circle cx="125" cy="227" r="5" fill="#8b4513" />
  
  <!-- Chocolate Bar -->
  <rect x="280" y="220" width="60" height="90" rx="5" ry="5" fill="#8b4513" />
  <rect x="285" y="225" width="50" height="80" fill="#3e2723" />
  <path d="M285,245 L335,245 M285,265 L335,265 M285,285 L335,285" stroke="#8b4513" stroke-width="2" />
  <path d="M305,225 L305,305 M325,225 L325,305" stroke="#8b4513" stroke-width="2" />
  
  <!-- Candy -->
  <ellipse cx="310" cy="160" rx="30" ry="20" fill="#9b59b6" />
  <ellipse cx="280" cy="160" rx="10" ry="6" fill="#e8daef" />
  <ellipse cx="340" cy="160" rx="10" ry="6" fill="#e8daef" />
  <path d="M275,160 Q280,155 290,160 M330,160 Q340,155 345,160" stroke="#8e44ad" stroke-width="2" fill="none" />
  
  <!-- Ice cream -->
  <path d="M80,160 L60,130 Q50,90 90,90 Q130,90 120,130 L100,160 Z" fill="#ecf0f1" />
  <path d="M65,120 Q75,110 95,120" stroke="#bdc3c7" stroke-width="2" fill="none" />
  <path d="M90,145 Q85,135 95,130" stroke="#bdc3c7" stroke-width="2" fill="none" />
  <path d="M75,135 Q80,125 90,135" stroke="#bdc3c7" stroke-width="2" fill="none" />
  <path d="M80,160 L90,200 L100,160" fill="#f39c12" />
  
  <!-- Circle decoration -->
  <circle cx="200" cy="200" r="160" stroke="#804000" stroke-width="5" fill="none" stroke-dasharray="15,15" />
  
  <!-- Text -->
  <text x="200" y="355" font-family="serif" font-size="24" font-weight="bold" text-anchor="middle" fill="#804000">Snacks</text>
</svg>